<?xml version="1.0" standalone="no"?>
<!DOCTYPE svg PUBLIC "-//W3C//DTD SVG 20010904//EN"
 "http://www.w3.org/TR/2001/REC-SVG-20010904/DTD/svg10.dtd">
<svg version="1.0" xmlns="http://www.w3.org/2000/svg"
 width="128.000000pt" height="144.000000pt" viewBox="0 0 128.000000 144.000000"
 preserveAspectRatio="xMidYMid meet">

<g transform="translate(0.000000,144.000000) scale(0.100000,-0.100000)"
fill="#000000" stroke="none">
<path d="M350 1218 l-285 -163 0 -335 0 -335 285 -162 c157 -90 287 -163 290
-163 3 0 133 73 290 163 l285 162 0 335 0 335 -285 162 c-157 90 -287 163
-290 163 -3 0 -133 -73 -290 -162z m348 61 c39 -22 69 -31 107 -32 58 -3 82
-17 101 -62 9 -23 40 -46 136 -100 l123 -70 0 -295 0 -295 -262 -148 -263
-149 -53 30 c-29 17 -72 36 -95 42 -22 7 -57 27 -78 44 -20 17 -96 65 -168
106 l-131 76 0 294 0 294 260 148 c143 81 262 148 264 148 2 0 29 -14 59 -31z"/>
<path d="M756 1188 c-2 -13 -14 -122 -26 -243 -24 -235 -26 -245 -44 -245 -24
0 -166 -102 -200 -143 -73 -89 -104 -196 -73 -257 17 -35 91 -70 147 -70 87 0
172 77 220 200 31 78 48 171 75 405 40 338 35 375 -50 375 -38 0 -45 -3 -49
-22z m-71 -610 c-44 -220 -110 -322 -197 -303 -37 9 -58 40 -58 89 0 52 32
113 91 176 47 49 168 135 177 126 2 -3 -3 -42 -13 -88z"/>
</g>
</svg>
